<svg id="레이어_1" data-name="레이어 1" xmlns="http://www.w3.org/2000/svg" viewBox="0 0 100 100"><defs><style>.cls-1{fill:#fff;}</style></defs><title>close-icon</title><circle cx="50" cy="50" r="50"/><path class="cls-1" d="M1035,137a3,3,0,0,1-2.12-.88l-43-43a3,3,0,0,1,4.24-4.24l43,43a3,3,0,0,1,0,4.24A3,3,0,0,1,1035,137Z" transform="translate(-963 -62)"/><path class="cls-1" d="M992,137a3,3,0,0,1-2.12-.88,3,3,0,0,1,0-4.24l43-43a3,3,0,0,1,4.24,4.24l-43,43A3,3,0,0,1,992,137Z" transform="translate(-963 -62)"/></svg>