<svg id="레이어_1" data-name="레이어 1" xmlns="http://www.w3.org/2000/svg" viewBox="0 0 748 748"><defs><style>.cls-1{fill:#f7f8f8;}.cls-1,.cls-2,.cls-3,.cls-4{stroke:#bdbebe;}.cls-1,.cls-2,.cls-3,.cls-4,.cls-5,.cls-6{stroke-miterlimit:10;}.cls-1,.cls-2,.cls-5{stroke-width:3px;}.cls-2,.cls-3,.cls-4,.cls-5,.cls-6{fill:none;}.cls-3{stroke-width:2px;}.cls-5{stroke:#c5c5c6;}.cls-6{stroke:#9e9e9f;}.cls-7{fill:#ffc200;}.cls-8{fill:#296bd9;}.cls-9{fill:#de184e;}</style></defs><title>graph</title><path class="cls-1" d="M698,190.07C633.92,77.45,512.83,1.5,374,1.5s-259.92,76-324,188.57L374,377.13Z"/><path class="cls-1" d="M50,190.07A370.84,370.84,0,0,0,1.5,374C1.5,579.73,168.27,746.5,374,746.5V377.13Z"/><path class="cls-1" d="M698,190.07,374,377.13V746.5c205.73,0,372.5-166.77,372.5-372.5A370.84,370.84,0,0,0,698,190.07Z"/><circle class="cls-2" cx="374" cy="374" r="372.5"/><circle class="cls-3" cx="374" cy="374" r="305"/><circle class="cls-3" cx="374" cy="374" r="237.5"/><circle class="cls-3" cx="374" cy="374" r="170"/><circle class="cls-3" cx="374" cy="374" r="102.5"/><circle class="cls-4" cx="374" cy="374" r="359"/><circle class="cls-4" cx="374" cy="374" r="345.5"/><circle class="cls-4" cx="374" cy="374" r="332"/><circle class="cls-4" cx="374" cy="374" r="318.5"/><circle class="cls-4" cx="374" cy="374" r="291.5"/><circle class="cls-4" cx="374" cy="374" r="278"/><circle class="cls-4" cx="374" cy="374" r="264.5"/><circle class="cls-4" cx="374" cy="374" r="251"/><circle class="cls-4" cx="374" cy="374" r="224"/><circle class="cls-4" cx="374" cy="374" r="210.5"/><circle class="cls-4" cx="374" cy="374" r="197"/><circle class="cls-4" cx="374" cy="374" r="183.5"/><circle class="cls-4" cx="374" cy="374" r="156.5"/><circle class="cls-4" cx="374" cy="374" r="143"/><circle class="cls-4" cx="374" cy="374" r="129.5"/><circle class="cls-4" cx="374" cy="374" r="116"/><circle class="cls-4" cx="374" cy="374" r="89"/><circle class="cls-4" cx="374" cy="374" r="75.5"/><circle class="cls-4" cx="374" cy="374" r="62"/><circle class="cls-4" cx="374" cy="374" r="48.5"/><circle class="cls-5" cx="374" cy="374" r="35"/><line class="cls-6" x1="374" y1="376.88" x2="51.41" y2="563.13"/><line class="cls-6" x1="374" y1="376.88" x2="696.59" y2="563.13"/><line class="cls-6" x1="374" y1="376.88" x2="560.25" y2="699.48"/><line class="cls-6" x1="374" y1="376.88" x2="746.5" y2="376.88"/><line class="cls-6" x1="374" y1="376.88" x2="501.4" y2="26.85"/><line class="cls-6" x1="374" y1="376.88" x2="246.6" y2="26.85"/><line class="cls-6" x1="374" y1="376.88" x2="1.5" y2="376.88"/><line class="cls-6" x1="374" y1="376.88" x2="187.75" y2="699.48"/><circle class="cls-7" cx="391.01" cy="404.75" r="5"/><circle class="cls-7" cx="404" cy="392.62" r="15"/><circle class="cls-7" cx="427.86" cy="406.4" r="5"/><circle class="cls-7" cx="407.5" cy="375.3" r="10"/><circle class="cls-8" cx="386" cy="342.31" r="10"/><circle class="cls-8" cx="396.01" cy="316.49" r="10"/><circle class="cls-8" cx="405.38" cy="290.67" r="10"/><circle class="cls-8" cx="362" cy="342.31" r="10"/><circle class="cls-9" cx="339" cy="375.3" r="15"/><circle class="cls-9" cx="344" cy="392.62" r="10"/><circle class="cls-9" cx="356.99" cy="404.75" r="15"/><circle class="cls-9" cx="343.29" cy="428.49" r="15"/><circle class="cls-9" cx="303.34" cy="497.68" r="10"/><circle class="cls-9" cx="289.4" cy="521.83" r="10"/><circle class="cls-9" cx="275.46" cy="545.98" r="10"/><circle class="cls-9" cx="329.87" cy="451.73" r="15"/><circle class="cls-9" cx="316.85" cy="474.28" r="15"/><circle class="cls-9" cx="321.18" cy="405.79" r="10"/><circle class="cls-9" cx="297" cy="419.75" r="10"/><circle class="cls-9" cx="312" cy="374" r="15"/><circle class="cls-9" cx="285" cy="374" r="15"/><circle class="cls-9" cx="258" cy="374" r="10"/></svg>